<svg width="192" height="39" viewBox="0 0 192 39" fill="none" xmlns="http://www.w3.org/2000/svg">
<path d="M34.0227 31V7.72727H43.2045C44.9697 7.72727 46.4735 8.06439 47.7159 8.73864C48.9583 9.4053 49.9053 10.3333 50.5568 11.5227C51.2159 12.7045 51.5455 14.0682 51.5455 15.6136C51.5455 17.1591 51.2121 18.5227 50.5455 19.7045C49.8788 20.8864 48.9129 21.8068 47.6477 22.4659C46.3902 23.125 44.8674 23.4545 43.0795 23.4545H37.2273V19.5114H42.2841C43.2311 19.5114 44.0114 19.3485 44.625 19.0227C45.2462 18.6894 45.7083 18.2311 46.0114 17.6477C46.322 17.0568 46.4773 16.3788 46.4773 15.6136C46.4773 14.8409 46.322 14.1667 46.0114 13.5909C45.7083 13.0076 45.2462 12.5568 44.625 12.2386C44.0038 11.9129 43.2159 11.75 42.2614 11.75H38.9432V31H34.0227ZM54.6506 31V13.5455H59.3438V16.5909H59.5256C59.8438 15.5076 60.3778 14.6894 61.1278 14.1364C61.8778 13.5758 62.7415 13.2955 63.7188 13.2955C63.9612 13.2955 64.2225 13.3106 64.5028 13.3409C64.7831 13.3712 65.0294 13.4129 65.2415 13.4659V17.7614C65.0142 17.6932 64.6998 17.6326 64.2983 17.5795C63.8968 17.5265 63.5294 17.5 63.196 17.5C62.4839 17.5 61.8475 17.6553 61.2869 17.9659C60.7339 18.2689 60.2945 18.6932 59.9688 19.2386C59.6506 19.7841 59.4915 20.4129 59.4915 21.125V31H54.6506ZM67.7443 31V13.5455H72.5852V31H67.7443ZM70.1761 11.2955C69.4564 11.2955 68.839 11.0568 68.3239 10.5795C67.8163 10.0947 67.5625 9.51515 67.5625 8.84091C67.5625 8.17424 67.8163 7.60227 68.3239 7.125C68.839 6.64015 69.4564 6.39773 70.1761 6.39773C70.8958 6.39773 71.5095 6.64015 72.017 7.125C72.5322 7.60227 72.7898 8.17424 72.7898 8.84091C72.7898 9.51515 72.5322 10.0947 72.017 10.5795C71.5095 11.0568 70.8958 11.2955 70.1761 11.2955ZM84.3494 31.3409C82.5616 31.3409 81.0237 30.9621 79.7358 30.2045C78.4555 29.4394 77.4706 28.3788 76.7812 27.0227C76.0994 25.6667 75.7585 24.1061 75.7585 22.3409C75.7585 20.553 76.1032 18.9848 76.7926 17.6364C77.4896 16.2803 78.4782 15.2235 79.7585 14.4659C81.0388 13.7008 82.5616 13.3182 84.3267 13.3182C85.8494 13.3182 87.1828 13.5947 88.3267 14.1477C89.4706 14.7008 90.3759 15.4773 91.0426 16.4773C91.7093 17.4773 92.0767 18.6515 92.1449 20H87.5767C87.4479 19.1288 87.107 18.428 86.554 17.8977C86.0085 17.3598 85.2926 17.0909 84.4062 17.0909C83.6562 17.0909 83.0009 17.2955 82.4403 17.7045C81.8873 18.1061 81.4555 18.6932 81.1449 19.4659C80.8343 20.2386 80.679 21.1742 80.679 22.2727C80.679 23.3864 80.8305 24.3333 81.1335 25.1136C81.4441 25.8939 81.8797 26.4886 82.4403 26.8977C83.0009 27.3068 83.6562 27.5114 84.4062 27.5114C84.9593 27.5114 85.4555 27.3977 85.8949 27.1705C86.3419 26.9432 86.7093 26.6136 86.9972 26.1818C87.2926 25.7424 87.4858 25.2159 87.5767 24.6023H92.1449C92.0691 25.9356 91.7055 27.1098 91.054 28.125C90.41 29.1326 89.5199 29.9205 88.3835 30.4886C87.2472 31.0568 85.9025 31.3409 84.3494 31.3409ZM103.199 31.3409C101.403 31.3409 99.858 30.9773 98.5625 30.25C97.2746 29.5152 96.2822 28.4773 95.5852 27.1364C94.8883 25.7879 94.5398 24.1932 94.5398 22.3523C94.5398 20.5568 94.8883 18.9811 95.5852 17.625C96.2822 16.2689 97.2633 15.2121 98.5284 14.4545C99.8011 13.697 101.294 13.3182 103.006 13.3182C104.157 13.3182 105.229 13.5038 106.222 13.875C107.222 14.2386 108.093 14.7879 108.835 15.5227C109.585 16.2576 110.169 17.1818 110.585 18.2955C111.002 19.4015 111.21 20.697 111.21 22.1818V23.5114H96.4716V20.5114H106.653C106.653 19.8144 106.502 19.197 106.199 18.6591C105.896 18.1212 105.475 17.7008 104.938 17.3977C104.407 17.0871 103.79 16.9318 103.085 16.9318C102.35 16.9318 101.699 17.1023 101.131 17.4432C100.57 17.7765 100.131 18.2273 99.8125 18.7955C99.4943 19.3561 99.3314 19.9811 99.3239 20.6705V23.5227C99.3239 24.3864 99.483 25.1326 99.8011 25.7614C100.127 26.3902 100.585 26.875 101.176 27.2159C101.767 27.5568 102.468 27.7273 103.278 27.7273C103.816 27.7273 104.309 27.6515 104.756 27.5C105.203 27.3485 105.585 27.1212 105.903 26.8182C106.222 26.5152 106.464 26.1439 106.631 25.7045L111.108 26C110.881 27.0758 110.415 28.0152 109.71 28.8182C109.013 29.6136 108.112 30.2348 107.006 30.6818C105.907 31.1212 104.638 31.3409 103.199 31.3409Z" fill="white"/>
<path d="M119.699 31L113.04 7.72727H118.415L122.267 23.8977H122.46L126.71 7.72727H131.312L135.551 23.9318H135.756L139.608 7.72727H144.983L138.324 31H133.528L129.097 15.7841H128.915L124.494 31H119.699ZM147.526 31V13.5455H152.366V31H147.526ZM149.957 11.2955C149.238 11.2955 148.62 11.0568 148.105 10.5795C147.598 10.0947 147.344 9.51515 147.344 8.84091C147.344 8.17424 147.598 7.60227 148.105 7.125C148.62 6.64015 149.238 6.39773 149.957 6.39773C150.677 6.39773 151.291 6.64015 151.798 7.125C152.313 7.60227 152.571 8.17424 152.571 8.84091C152.571 9.51515 152.313 10.0947 151.798 10.5795C151.291 11.0568 150.677 11.2955 149.957 11.2955ZM170.767 18.5227L166.335 18.7955C166.259 18.4167 166.097 18.0758 165.847 17.7727C165.597 17.4621 165.267 17.2159 164.858 17.0341C164.456 16.8447 163.975 16.75 163.415 16.75C162.665 16.75 162.032 16.9091 161.517 17.2273C161.002 17.5379 160.744 17.9545 160.744 18.4773C160.744 18.8939 160.911 19.2462 161.244 19.5341C161.578 19.822 162.15 20.053 162.96 20.2273L166.119 20.8636C167.816 21.2121 169.081 21.7727 169.915 22.5455C170.748 23.3182 171.165 24.3333 171.165 25.5909C171.165 26.7348 170.828 27.7386 170.153 28.6023C169.487 29.4659 168.57 30.1402 167.403 30.625C166.244 31.1023 164.907 31.3409 163.392 31.3409C161.081 31.3409 159.241 30.8598 157.869 29.8977C156.506 28.928 155.706 27.6098 155.472 25.9432L160.233 25.6932C160.377 26.3977 160.725 26.9356 161.278 27.3068C161.831 27.6705 162.54 27.8523 163.403 27.8523C164.252 27.8523 164.934 27.6894 165.449 27.3636C165.972 27.0303 166.237 26.6023 166.244 26.0795C166.237 25.6402 166.051 25.2803 165.688 25C165.324 24.7121 164.763 24.4924 164.006 24.3409L160.983 23.7386C159.278 23.3977 158.009 22.8068 157.176 21.9659C156.35 21.125 155.938 20.053 155.938 18.75C155.938 17.6288 156.241 16.6629 156.847 15.8523C157.46 15.0417 158.32 14.4167 159.426 13.9773C160.54 13.5379 161.843 13.3182 163.335 13.3182C165.54 13.3182 167.275 13.7841 168.54 14.7159C169.813 15.6477 170.555 16.9167 170.767 18.5227ZM182.168 31.3409C180.372 31.3409 178.827 30.9773 177.531 30.25C176.243 29.5152 175.251 28.4773 174.554 27.1364C173.857 25.7879 173.509 24.1932 173.509 22.3523C173.509 20.5568 173.857 18.9811 174.554 17.625C175.251 16.2689 176.232 15.2121 177.497 14.4545C178.77 13.697 180.262 13.3182 181.974 13.3182C183.126 13.3182 184.198 13.5038 185.19 13.875C186.19 14.2386 187.062 14.7879 187.804 15.5227C188.554 16.2576 189.137 17.1818 189.554 18.2955C189.971 19.4015 190.179 20.697 190.179 22.1818V23.5114H175.44V20.5114H185.622C185.622 19.8144 185.471 19.197 185.168 18.6591C184.865 18.1212 184.444 17.7008 183.906 17.3977C183.376 17.0871 182.759 16.9318 182.054 16.9318C181.319 16.9318 180.668 17.1023 180.099 17.4432C179.539 17.7765 179.099 18.2273 178.781 18.7955C178.463 19.3561 178.3 19.9811 178.293 20.6705V23.5227C178.293 24.3864 178.452 25.1326 178.77 25.7614C179.096 26.3902 179.554 26.875 180.145 27.2159C180.736 27.5568 181.437 27.7273 182.247 27.7273C182.785 27.7273 183.277 27.6515 183.724 27.5C184.171 27.3485 184.554 27.1212 184.872 26.8182C185.19 26.5152 185.433 26.1439 185.599 25.7045L190.077 26C189.849 27.0758 189.384 28.0152 188.679 28.8182C187.982 29.6136 187.08 30.2348 185.974 30.6818C184.876 31.1212 183.607 31.3409 182.168 31.3409Z" fill="#E43030"/>
<path opacity="0.4" d="M23.955 11.7441L21.515 9.30411C19.4551 7.24412 18.4257 6.21344 17.0884 5.83078C15.751 5.44678 14.331 5.77478 11.4923 6.43078L9.855 6.80811C7.46566 7.35878 6.271 7.63478 5.45233 8.45212C4.635 9.27078 4.359 10.4654 3.80834 12.8548L3.42967 14.4921C2.775 17.3321 2.447 18.7508 2.82967 20.0881C3.21367 21.4255 4.24433 22.4548 6.30434 24.5148L8.74434 26.9547C12.331 30.5428 14.123 32.3335 16.3496 32.3335C18.5777 32.3335 20.3697 30.5402 23.955 26.9547C27.543 23.3694 29.3337 21.5774 29.3337 19.3494C29.3337 17.1228 27.5404 15.3295 23.955 11.7441Z" fill="#E43030"/>
<path d="M14.8628 22.1041C13.9655 21.2081 13.9736 19.9201 14.5095 18.9001C14.3765 18.708 14.315 18.4753 14.3356 18.2426C14.3563 18.0098 14.4578 17.7915 14.6226 17.6258C14.7873 17.4601 15.0049 17.3573 15.2376 17.3353C15.4703 17.3134 15.7033 17.3735 15.8962 17.5055C16.3495 17.2655 16.8468 17.1375 17.3428 17.1428C17.6081 17.1452 17.8614 17.2529 18.0473 17.4422C18.233 17.6316 18.336 17.8869 18.3335 18.1521C18.331 18.4174 18.2233 18.6706 18.034 18.8565C17.8447 19.0422 17.5894 19.1452 17.3242 19.1428C17.0155 19.1542 16.7237 19.2869 16.5122 19.5121C15.9962 20.0282 16.1321 20.5455 16.2761 20.6908C16.4229 20.8361 16.9389 20.9707 17.4548 20.4548C18.5001 19.4095 20.3055 19.0628 21.4629 20.2187C22.3602 21.1162 22.3522 22.4041 21.8149 23.4241C21.947 23.6163 22.0079 23.8486 21.9868 24.0809C21.9659 24.3132 21.8643 24.5309 21.6998 24.6962C21.5352 24.8616 21.318 24.9641 21.0859 24.9863C20.8537 25.0084 20.621 24.9487 20.4282 24.8175C19.8298 25.1457 19.1359 25.2549 18.4655 25.1268C18.3368 25.1003 18.2146 25.0488 18.1058 24.9751C17.997 24.9014 17.9039 24.8071 17.8316 24.6973C17.7593 24.5877 17.7093 24.4648 17.6844 24.3358C17.6596 24.2068 17.6604 24.0741 17.6869 23.9454C17.7133 23.8167 17.7649 23.6945 17.8385 23.5857C17.9122 23.4769 18.0065 23.3838 18.1163 23.3115C18.226 23.2392 18.3488 23.1892 18.4779 23.1643C18.6068 23.1395 18.7396 23.1403 18.8681 23.1668C19.1042 23.2161 19.4855 23.1388 19.8121 22.8122C20.3295 22.2948 20.1935 21.7788 20.0482 21.6335C19.9028 21.4881 19.3869 21.3534 18.8696 21.8695C17.8242 22.9148 16.0188 23.2615 14.8628 22.1041ZM13.3615 16.7241C13.6162 16.478 13.8194 16.1839 13.9591 15.8586C14.0988 15.5332 14.1724 15.1832 14.1755 14.8292C14.1786 14.4751 14.1112 14.1239 13.977 13.7962C13.843 13.4685 13.6449 13.1708 13.3946 12.9204C13.1442 12.67 12.8465 12.472 12.5188 12.3379C12.191 12.2038 11.8399 12.1363 11.4858 12.1394C11.1317 12.1425 10.7818 12.2161 10.4565 12.3558C10.1311 12.4956 9.83685 12.6987 9.59086 12.9534C9.10511 13.4564 8.83632 14.13 8.8424 14.8292C8.84847 15.5284 9.12893 16.1972 9.62334 16.6916C10.1178 17.1861 10.7866 17.4665 11.4858 17.4725C12.185 17.4786 12.8585 17.2099 13.3615 16.7241Z" fill="#E43030"/>
</svg>
